<?xml version="1.0" standalone="no"?>
<!DOCTYPE svg PUBLIC "-//W3C//DTD SVG 20010904//EN"
 "http://www.w3.org/TR/2001/REC-SVG-20010904/DTD/svg10.dtd">
<svg version="1.0" xmlns="http://www.w3.org/2000/svg"
 width="512.000000pt" height="512.000000pt" viewBox="0 0 512.000000 512.000000"
 preserveAspectRatio="xMidYMid meet">

<g transform="translate(0.000000,512.000000) scale(0.100000,-0.100000)"
fill="#000000" stroke="none">
<path d="M2169 3843 c-67 -35 -115 -102 -125 -174 l-7 -49 -649 0 c-561 0
-659 -2 -712 -16 -150 -39 -276 -143 -345 -286 -46 -95 -61 -167 -61 -285 l0
-83 -42 0 c-96 0 -193 -77 -219 -172 -6 -25 -9 -160 -7 -367 l3 -328 30 -49
c40 -63 104 -103 179 -111 l56 -6 0 -86 c1 -184 50 -312 164 -427 82 -82 182
-136 286 -154 44 -7 228 -10 570 -8 574 4 552 1 690 93 87 58 137 116 197 229
81 153 172 224 317 248 82 14 169 -1 252 -42 74 -36 132 -97 175 -182 92 -184
219 -292 390 -333 94 -22 1014 -22 1108 0 195 46 360 211 406 406 8 35 15 107
15 160 l0 96 61 6 c79 7 143 46 184 111 l30 49 3 328 c2 207 -1 342 -7 367
-26 95 -123 172 -218 172 l-43 0 0 88 c-1 179 -55 317 -168 429 -66 66 -167
123 -252 142 -28 7 -285 11 -696 11 l-651 0 -7 49 c-10 72 -58 139 -125 174
l-55 27 -336 0 -336 0 -55 -27z m2227 -552 c57 -26 111 -92 124 -155 8 -35 10
-260 8 -731 l-3 -680 -22 -42 c-27 -51 -82 -96 -132 -112 -59 -17 -963 -15
-1014 3 -66 24 -101 60 -146 150 -99 195 -258 327 -461 382 -99 27 -291 25
-395 -4 -129 -37 -209 -85 -306 -182 -70 -70 -95 -103 -128 -173 -52 -106 -72
-132 -124 -160 -41 -22 -48 -22 -522 -25 -339 -2 -492 0 -521 9 -54 14 -109
60 -137 112 l-22 42 -3 680 c-2 489 0 695 8 734 14 63 64 125 125 152 38 18
120 19 1835 19 1722 0 1797 -1 1836 -19z"/>
<path d="M771 3124 c-21 -26 -21 -34 -21 -690 0 -651 0 -664 20 -684 19 -19
33 -20 478 -20 l459 0 20 23 c12 12 35 50 51 83 96 191 300 358 518 423 157
46 380 46 532 -1 225 -69 418 -232 523 -439 21 -42 45 -79 54 -83 9 -3 221 -6
470 -6 l454 0 20 26 c21 26 21 34 21 684 0 650 0 658 -21 684 l-20 26 -1769 0
-1769 0 -20 -26z m678 -194 c285 -37 487 -330 416 -603 -31 -120 -93 -214
-187 -283 -199 -146 -469 -126 -641 48 -100 101 -147 213 -147 348 0 135 47
247 147 348 71 72 177 127 271 141 31 5 59 9 62 9 3 1 38 -3 79 -8z m2416 -12
c114 -29 250 -137 307 -244 77 -143 77 -325 0 -468 -15 -28 -55 -79 -89 -114
-235 -238 -635 -175 -787 125 -98 195 -63 416 90 570 127 127 303 175 479 131z"/>
<path d="M1321 2769 c-153 -30 -271 -174 -271 -329 0 -93 31 -164 104 -236 74
-73 136 -98 238 -97 125 2 248 84 301 201 32 72 30 189 -4 263 -65 138 -228
226 -368 198z"/>
<path d="M3679 2770 c-102 -17 -207 -100 -252 -198 -31 -67 -31 -198 0 -264
54 -118 176 -199 301 -201 102 -1 164 24 238 97 95 94 126 208 90 328 -47 156
-219 265 -377 238z"/>
</g>
</svg>
